# xmcd
#
# Track frame offsets: 
#        150
#        20202
#        39319
#        50793
#        65772
#        86548
#        114273
#        132868
#        146091
#        164070
#        179720
#        197437
#        211817
#        233086
#        252332
#        266073
#        309763
#
# Disc length: 4595 seconds
#
# Revision: 0
# Processed by: cddbd v1.5.2PL0 Copyright (c) Steve Scherf et al.
# Submitted via: ExactAudioCopyFreeDBPlugin 1.0
#
DISCID=fa11f111
DTITLE=Various Artist - Street Sounds from the Bay Area
DYEAR=2011
DGENRE=R&B
TTITLE0=Charles "Doc" Williams - Bumpin' on Sunset - We Got More Soul
TTITLE1=Chucky Thurmon - Just a Man
TTITLE2=The Two Things in One - Stop Telling me
TTITLE3=Houston Outlaws - I Just Got to be Loving you
TTITLE4=The Soul Messengers - Wouldn't It Be a Shame
TTITLE5=Al Tanner - The Rock that Killed Goliath
TTITLE6=The Soul Sensations - TP Paper
TTITLE7=The Two Things in One - Snag Nasty
TTITLE8=Darondo - Gimme Some (Version 1)
TTITLE9=Kevin Burton - Is It Right
TTITLE10=Benida Madison - Time Flies
TTITLE11=Bob Carson - A Lonely Place
TTITLE12=The Soul Messengers - Sixth Sense
TTITLE13=Dry Ice - Everything's Alright
TTITLE14=Victor Green - Giant Hamburger Part 2
TTITLE15=Love Uprisers - Eddie Boogaloo
TTITLE16=The Cookin' Bag - Ruby Dee
EXTD=
EXTT0=
EXTT1=
EXTT2=
EXTT3=
EXTT4=
EXTT5=
EXTT6=
EXTT7=
EXTT8=
EXTT9=
EXTT10=
EXTT11=
EXTT12=
EXTT13=
EXTT14=
EXTT15=
EXTT16=
PLAYORDER=
